# xmcd
#
# Track frame offsets:
#	150
#	16832
#	26098
#	42348
#	57158
#	72712
#	86274
#	96740
#	118390
#	130872
#	146762
#	161692
#	178902
#	194360
#
# Disc length: 2876 seconds
#
# Revision: 1
# Processed by: cddbd v1.5.2PL0 Copyright (c) Steve Scherf et al.
# Submitted via: audiograbber 1.83.01
#
DISCID=d30b3a0e
DTITLE=Ben Coulter - "Cuz" IV - The Call me an Outlaw
DYEAR=2010
DGENRE=Country
TTITLE0=They Call Me an Outlaw
TTITLE1=Back in the Saddle Again
TTITLE2=Wake up Mama
TTITLE3=I'd Die Trying
TTITLE4=I just want to be Heart
TTITLE5=Made to be tied down
TTITLE6=Waiting for a train
TTITLE7=Further down the Road
TTITLE8=24 miles from Jackson - headed home
TTITLE9=Lord, Help me to be
TTITLE10=My Arkansas Woman
TTITLE11=Long Black Cars and Cocaine
TTITLE12=When Haggard was King
TTITLE13=They Call me an outlaw (acoustic)
EXTD=
EXTT0=
EXTT1=
EXTT2=
EXTT3=
EXTT4=
EXTT5=
EXTT6=
EXTT7=
EXTT8=
EXTT9=
EXTT10=
EXTT11=
EXTT12=
EXTT13=
PLAYORDER=
